HIERARCHY
ROOT Hips
{
	OFFSET -0.001795 -0.223333 0.028219
	CHANNELS 6 Xposition Yposition Zposition Zrotation Yrotation Xrotation 
	JOINT LeftUpLeg
	{
		OFFSET 0.069520 -0.091406 -0.006815
		CHANNELS 3 Zrotation Yrotation Xrotation
		JOINT LeftLeg
		{
			OFFSET 0.034277 -0.375199 -0.004496
			CHANNELS 3 Zrotation Yrotation Xrotation
			JOINT LeftFoot
			{
				OFFSET -0.013596 -0.397961 -0.043693
				CHANNELS 3 Zrotation Yrotation Xrotation
				JOINT LeftToe
				{
					OFFSET 0.026358 -0.055791 0.119288
					CHANNELS 3 Zrotation Yrotation Xrotation
					End Site
					{
						OFFSET 0.000000 0.000000 0.000000
					}
				}
			}
		}
	}
	JOINT RightUpLeg
	{
		OFFSET -0.067670 -0.090522 -0.004320
		CHANNELS 3 Zrotation Yrotation Xrotation
		JOINT RightLeg
		{
			OFFSET -0.038290 -0.382569 -0.008850
			CHANNELS 3 Zrotation Yrotation Xrotation
			JOINT RightFoot
			{
				OFFSET 0.015774 -0.398415 -0.042312
				CHANNELS 3 Zrotation Yrotation Xrotation
				JOINT RightToe
				{
					OFFSET -0.025372 -0.048144 0.123348
					CHANNELS 3 Zrotation Yrotation Xrotation
					End Site
					{
						OFFSET 0.000000 0.000000 0.000000
					}
				}
			}
		}
	}
	JOINT Spine
	{
		OFFSET -0.002533 0.108963 -0.026696
		CHANNELS 3 Zrotation Yrotation Xrotation
		JOINT Spine1
		{
			OFFSET 0.005487 0.135180 0.001092
			CHANNELS 3 Zrotation Yrotation Xrotation
			JOINT Spine2
			{
				OFFSET 0.001457 0.052922 0.025425
				CHANNELS 3 Zrotation Yrotation Xrotation
				JOINT Neck
				{
					OFFSET -0.002778 0.213870 -0.042857
					CHANNELS 3 Zrotation Yrotation Xrotation
					JOINT Head
					{
						OFFSET 0.005152 0.064970 0.051349
						CHANNELS 3 Zrotation Yrotation Xrotation
						End Site
						{
							OFFSET 0.000000 0.000000 0.000000
						}
					}
				}
				JOINT LeftShoulder
				{
					OFFSET 0.078845 0.121749 -0.034090
					CHANNELS 3 Zrotation Yrotation Xrotation
					JOINT LeftArm
					{
						OFFSET 0.090977 0.030469 -0.008868
						CHANNELS 3 Zrotation Yrotation Xrotation
						JOINT LeftForeArm
						{
							OFFSET 0.259612 -0.012772 -0.027456
							CHANNELS 3 Zrotation Yrotation Xrotation
							JOINT LeftHand
							{
								OFFSET 0.249234 0.008986 -0.001171
								CHANNELS 3 Zrotation Yrotation Xrotation
								End Site
								{
									OFFSET 0.000000 0.000000 0.000000
								}
							}
						}
					}
				}
				JOINT RightShoulder
				{
					OFFSET -0.081759 0.118833 -0.038615
					CHANNELS 3 Zrotation Yrotation Xrotation
					JOINT RightArm
					{
						OFFSET -0.096012 0.032551 -0.009143
						CHANNELS 3 Zrotation Yrotation Xrotation
						JOINT RightForeArm
						{
							OFFSET -0.253742 -0.013329 -0.021401
							CHANNELS 3 Zrotation Yrotation Xrotation
							JOINT RightHand
							{
								OFFSET -0.255298 0.007772 -0.005559
								CHANNELS 3 Zrotation Yrotation Xrotation
								End Site
								{
									OFFSET 0.000000 0.000000 0.000000
								}
							}
						}
					}
				}
			}
		}
	}
}
MOTION
Frames: 17
Frame Time: 0.050000
0.000000 0.925635 0.000000 -1.320106 10.433399 -4.625115 12.977954 -0.571769 3.806419 -5.249133 0.452128 8.127876 1.159107 -17.752359 -21.546203 0.000000 0.000000 0.000000 -4.137660 0.412051 -7.697525 28.434010 -8.083171 14.495911 28.312188 23.558734 39.937696 0.000000 0.000000 0.000000 3.214416 -0.474101 6.719699 0.663008 -0.787621 5.940568 -6.980801 1.312651 9.961293 5.554971 -2.035145 -12.951506 0.000000 0.000000 0.000000 -34.044990 -21.875214 8.529254 -34.151213 -10.704121 -0.461715 6.469661 -32.267018 -0.949427 0.000000 0.000000 0.000000 28.590649 13.148991 9.318870 45.177307 18.949776 0.970568 -3.622063 30.589679 0.568696 0.000000 0.000000 0.000000 
0.000568 0.925331 0.001424 -1.174464 10.121615 -4.185416 13.459219 -0.593263 3.407543 -6.470689 0.642676 8.333781 1.145791 -17.552032 -21.504920 0.000000 0.000000 0.000000 -3.989446 0.528286 -9.489196 27.716572 -8.403207 16.825750 28.326112 23.692416 39.728658 0.000000 0.000000 0.000000 3.466560 -0.376019 5.303283 0.648923 -0.801521 6.248684 -8.321644 2.181701 11.518533 5.258747 -1.824364 -12.558276 0.000000 0.000000 0.000000 -33.109003 -21.226500 7.648490 -34.925066 -10.491723 -0.537440 7.034759 -34.070666 -1.246835 0.000000 0.000000 0.000000 29.170191 13.720684 10.289628 44.547095 20.104318 1.038772 -3.700511 28.614779 0.531604 0.000000 0.000000 0.000000 
0.000714 0.925657 0.002515 -1.359606 10.635461 -4.090784 13.503847 -0.606804 2.986265 -6.094676 0.571825 8.704622 1.170714 -17.934355 -21.652554 0.000000 0.000000 0.000000 -3.812373 0.565057 -9.995917 27.639386 -8.624417 17.374979 28.044862 23.489666 39.566623 0.000000 0.000000 0.000000 3.935622 -0.416916 5.493495 1.106333 -1.037710 5.901874 -9.096187 2.549098 12.567156 5.520132 -2.234376 -10.991863 0.000000 0.000000 0.000000 -33.185690 -21.349149 7.444728 -33.921805 -11.436173 -0.259795 5.729055 -33.062600 -0.830391 0.000000 0.000000 0.000000 28.784824 14.242606 10.859450 43.899017 19.614816 0.691203 -2.687566 29.296726 0.779520 0.000000 0.000000 0.000000 
0.000369 0.926554 0.003293 -1.192814 11.191733 -4.674161 13.665912 -0.629524 3.067557 -6.429382 0.607030 10.148303 1.333119 -18.596162 -22.315075 0.000000 0.000000 0.000000 -3.919235 0.506603 -9.361279 27.499238 -8.704104 17.462479 27.871703 23.420511 39.417432 0.000000 0.000000 0.000000 3.683951 -0.392365 5.420352 1.453696 -1.354214 6.977201 -9.526115 2.690056 12.639599 5.455154 -2.482008 -9.246256 0.000000 0.000000 0.000000 -33.737789 -22.330029 7.949484 -33.055779 -11.013530 -0.276703 5.293795 -33.594615 -0.720453 0.000000 0.000000 0.000000 28.437738 14.618185 11.181676 44.233024 20.047026 0.871123 -3.973839 28.645545 0.459710 0.000000 0.000000 0.000000 
-0.000610 0.926332 0.003629 -1.147550 12.129397 -4.854014 13.689265 -0.644933 2.554056 -6.506226 0.590961 10.458057 1.133145 -19.238471 -21.953403 0.000000 0.000000 0.000000 -3.964485 0.473892 -9.136362 27.575527 -8.860535 17.276976 27.453016 23.281517 38.988427 0.000000 0.000000 0.000000 3.167769 -0.440860 6.318028 2.330527 -1.926808 7.319669 -9.926785 2.693763 12.395213 5.820903 -3.007378 -7.853734 0.000000 0.000000 0.000000 -34.941004 -23.036311 8.280653 -31.506672 -10.788820 -0.212481 4.509792 -33.595362 -0.467771 0.000000 0.000000 0.000000 28.904144 14.801089 11.558079 43.926774 19.649301 0.664926 -5.377518 28.117664 0.123449 0.000000 0.000000 0.000000 
-0.002167 0.925950 0.003461 -1.195959 12.625085 -5.053472 14.029550 -0.673577 2.222321 -7.284337 0.702070 10.828562 1.088820 -19.188555 -21.701890 0.000000 0.000000 0.000000 -3.694577 0.475457 -8.812595 27.424750 -8.823184 16.971625 27.192376 23.278860 38.615062 0.000000 0.000000 0.000000 2.759475 -0.454616 6.756470 2.799252 -2.203793 7.241200 -9.849917 2.691248 12.764128 5.800699 -3.132959 -7.153161 0.000000 0.000000 0.000000 -35.013685 -23.818221 8.783282 -31.001258 -10.771802 -0.208187 3.374516 -33.327545 -0.114152 0.000000 0.000000 0.000000 29.089957 15.238826 11.990280 43.495361 19.367758 0.464902 -5.235866 27.991812 0.146157 0.000000 0.000000 0.000000 
-0.003968 0.925747 0.002586 -1.261113 13.062029 -5.174003 13.972158 -0.648920 1.448519 -8.351622 0.851561 10.058259 0.616282 -18.084672 -19.778050 0.000000 0.000000 0.000000 -3.639225 0.464711 -8.641671 27.616219 -8.886903 16.637632 26.960648 23.088213 38.522835 0.000000 0.000000 0.000000 2.530325 -0.484836 7.285610 3.297719 -2.575553 7.723318 -9.976992 2.486882 12.765445 6.170167 -3.456900 -7.019703 0.000000 0.000000 0.000000 -34.932851 -24.475069 9.299692 -30.642164 -11.299108 -0.093870 3.373423 -32.456379 -0.094339 0.000000 0.000000 0.000000 29.091230 16.020283 12.479900 43.091291 19.146298 0.388229 -6.400388 27.730873 -0.137737 0.000000 0.000000 0.000000 
-0.005788 0.925405 0.001297 -1.431503 13.331896 -5.262692 13.818339 -0.619871 0.797603 -8.784796 0.889600 8.948784 0.136014 -17.013632 -17.834343 0.000000 0.000000 0.000000 -3.434018 0.481280 -8.645030 27.736134 -8.939433 16.456356 26.773867 22.908772 38.477845 0.000000 0.000000 0.000000 2.469871 -0.555896 8.186729 3.759781 -2.812281 7.407350 -10.093909 2.493359 13.571760 6.715984 -3.877671 -7.094200 0.000000 0.000000 0.000000 -34.849185 -25.726231 10.236180 -29.827193 -11.966607 0.010634 3.574976 -32.079203 -0.132546 0.000000 0.000000 0.000000 28.389084 16.341307 12.576726 43.678852 19.421656 0.507719 -7.259137 28.137920 -0.313685 0.000000 0.000000 0.000000 
-0.007398 0.925170 -0.000370 -1.683766 13.591472 -5.155196 13.861760 -0.625636 0.449689 -8.233679 0.801645 8.903723 0.129998 -17.148608 -17.831349 0.000000 0.000000 0.000000 -3.108330 0.506656 -8.542732 27.851495 -8.827865 15.694500 26.571972 22.766251 38.375024 0.000000 0.000000 0.000000 2.423199 -0.587677 8.568515 4.341668 -3.271635 8.090183 -10.277357 2.510989 13.593772 7.349546 -4.322026 -7.301259 0.000000 0.000000 0.000000 -35.156303 -27.293312 11.427594 -28.731957 -12.965989 0.235100 3.477145 -31.332924 -0.075224 0.000000 0.000000 0.000000 27.482244 16.724151 12.633118 44.166599 19.561156 0.655668 -7.914511 27.940039 -0.454961 0.000000 0.000000 0.000000 
-0.008699 0.924953 -0.002231 -2.001454 13.614262 -5.060261 13.768765 -0.611972 0.092549 -7.386705 0.679331 8.974092 0.231677 -17.048499 -17.966945 0.000000 0.000000 0.000000 -2.911805 0.525540 -8.511054 28.215180 -8.790987 15.041039 26.503488 22.539227 38.579937 0.000000 0.000000 0.000000 2.368237 -0.655771 9.384423 4.931353 -3.671790 8.360646 -10.635761 2.242507 13.631223 7.965245 -4.835616 -7.273943 0.000000 0.000000 0.000000 -35.593114 -28.538585 12.600789 -27.925161 -14.431397 0.494192 3.942006 -30.570723 -0.166181 0.000000 0.000000 0.000000 27.068832 17.122956 12.681533 44.524885 20.138604 0.964773 -8.560792 28.182036 -0.606413 0.000000 0.000000 0.000000 
-0.009382 0.924958 -0.004342 -2.189174 13.181666 -4.729997 13.736552 -0.593604 -0.143808 -7.018566 0.637352 8.632691 0.302835 -16.538821 -17.876217 0.000000 0.000000 0.000000 -2.563390 0.572620 -8.583485 28.128212 -8.490319 14.348731 26.610866 22.579922 38.694432 0.000000 0.000000 0.000000 2.454011 -0.726675 10.107325 5.130461 -3.845244 8.793844 -10.863858 1.786484 13.523018 8.229447 -4.958763 -7.813622 0.000000 0.000000 0.000000 -36.119095 -30.196187 14.373042 -27.021299 -16.074240 0.718560 4.611645 -29.924737 -0.297339 0.000000 0.000000 0.000000 26.544696 18.010601 12.868075 44.823047 20.232581 1.145661 -8.841414 28.522723 -0.699493 0.000000 0.000000 0.000000 
-0.009252 0.924452 -0.006765 -2.326949 12.942510 -4.333386 13.603969 -0.568996 -0.644804 -6.648869 0.589812 8.561485 0.403109 -16.179183 -17.918433 0.000000 0.000000 0.000000 -2.616685 0.596519 -8.962423 28.444252 -8.443524 13.949738 26.663892 22.492329 38.875723 0.000000 0.000000 0.000000 2.127277 -0.797924 11.225974 5.582842 -4.170454 9.154836 -11.006575 1.054764 13.501565 8.555031 -5.211631 -8.117520 0.000000 0.000000 0.000000 -36.585424 -31.562318 16.077201 -25.700531 -18.348370 0.970916 5.850933 -30.206973 -0.597303 0.000000 0.000000 0.000000 25.913860 18.980676 12.989447 45.000214 20.841079 1.531171 -8.752386 29.535630 -0.732897 0.000000 0.000000 0.000000 
-0.008219 0.924388 -0.009530 -2.593732 12.214251 -3.991336 13.483570 -0.531621 -0.999101 -6.211227 0.543721 8.503021 0.598903 -15.380042 -17.998481 0.000000 0.000000 0.000000 -2.416723 0.680872 -9.829830 28.396211 -8.438857 14.472118 26.888948 22.469211 39.208451 0.000000 0.000000 0.000000 2.297931 -0.927492 12.515468 5.655089 -4.312927 9.940321 -11.068125 0.050404 12.871392 8.536749 -5.281448 -8.133536 0.000000 0.000000 0.000000 -37.042297 -32.935331 18.061432 -24.727841 -20.871646 1.222096 7.433680 -30.343859 -0.989464 0.000000 0.000000 0.000000 25.235345 19.849897 12.846494 45.395480 21.285018 1.968334 -8.658865 31.114124 -0.792198 0.000000 0.000000 0.000000 
-0.006551 0.923939 -0.012506 -2.624451 11.481138 -3.635085 13.375502 -0.491126 -1.435286 -6.315348 0.576517 8.645339 0.772046 -14.615521 -18.076073 0.000000 0.000000 0.000000 -2.795311 0.694481 -10.526768 28.828369 -8.521803 14.769656 27.184438 22.405000 39.694046 0.000000 0.000000 0.000000 1.993811 -1.037755 14.190190 6.000650 -4.608116 10.645431 -11.018985 -0.824379 12.050164 8.112718 -5.008711 -8.228246 0.000000 0.000000 0.000000 -37.688343 -34.255886 20.028399 -23.593485 -23.477182 1.455789 10.451011 -31.314530 -1.835609 0.000000 0.000000 0.000000 24.635916 20.692538 12.736926 45.783152 21.629036 2.370516 -9.099903 32.973460 -1.010082 0.000000 0.000000 0.000000 
-0.004687 0.924451 -0.015626 -2.791750 9.954250 -3.105836 13.294593 -0.429720 -1.874207 -6.319052 0.614915 8.759826 1.065351 -13.076873 -18.101316 0.000000 0.000000 0.000000 -2.829440 0.770216 -11.439212 28.944501 -8.393832 15.229201 27.779583 22.392223 40.550542 0.000000 0.000000 0.000000 1.772412 -1.121213 15.710502 5.844786 -4.556306 11.488074 -10.698635 -1.650130 11.073204 7.328542 -4.710583 -7.173837 0.000000 0.000000 0.000000 -37.715522 -35.039472 21.561540 -21.889838 -26.213313 1.544389 15.050994 -31.878771 -3.153140 0.000000 0.000000 0.000000 24.431811 21.781289 12.772577 46.196634 22.101771 2.849020 -10.146197 35.028136 -1.465606 0.000000 0.000000 0.000000 
-0.003139 0.924913 -0.018885 -2.766285 8.638422 -2.308914 13.066445 -0.372982 -2.641225 -6.387252 0.659575 8.863649 1.293284 -11.674286 -18.014314 0.000000 0.000000 0.000000 -3.016300 0.833623 -12.424450 29.050169 -8.193393 15.333251 28.265905 22.399777 41.217052 0.000000 0.000000 0.000000 1.216467 -1.193317 17.829242 5.847973 -4.499366 11.702547 -10.519551 -2.365563 10.433054 6.800561 -4.482937 -6.608725 0.000000 0.000000 0.000000 -37.728660 -36.000852 23.126160 -19.221603 -29.117599 1.440558 20.442525 -31.884504 -4.673114 0.000000 0.000000 0.000000 24.514902 22.275681 12.598210 45.821682 22.821901 3.264645 -11.054134 38.114322 -1.984305 0.000000 0.000000 0.000000 
-0.001733 0.926307 -0.022416 -3.131029 7.186894 -1.449527 13.393133 -0.328460 -3.438617 -6.674497 0.743911 8.791130 1.476080 -10.154891 -17.718947 0.000000 0.000000 0.000000 -2.424686 0.997244 -13.475858 28.589922 -7.781833 15.358773 28.753856 22.439275 41.853446 0.000000 0.000000 0.000000 1.017428 -1.289080 19.897177 5.753912 -4.454056 12.488369 -10.412020 -3.021664 9.229120 6.175583 -4.241407 -5.454259 0.000000 0.000000 0.000000 -37.021221 -36.641033 24.108367 -16.949430 -31.826555 1.283670 25.812327 -30.824841 -5.983598 0.000000 0.000000 0.000000 25.186980 23.296016 12.886545 45.809877 23.345736 3.689605 -13.057684 41.081654 -2.983670 0.000000 0.000000 0.000000 
